<mxfile host="app.diagrams.net" modified="2021-06-05T10:05:43.353Z" agent="5.0 (Windows NT 10.0; Win64; x64) AppleWebKit/537.36 (KHTML, like Gecko) Chrome/88.0.4324.182 Safari/537.36" etag="DHqBuidnYCv_BdatqVZf" version="14.7.6" type="github">
  <diagram id="zbG-ZX9xhnDzzL3G_lsU" name="Page-1">
    <mxGraphModel dx="1444" dy="876" grid="1" gridSize="10" guides="1" tooltips="1" connect="1" arrows="1" fold="1" page="1" pageScale="1" pageWidth="3300" pageHeight="4681" math="0" shadow="0">
      <root>
        <mxCell id="0" />
        <mxCell id="1" parent="0" />
        <mxCell id="N_kNWa-cUgh5Z6yBXbxZ-3" value="" style="edgeStyle=orthogonalEdgeStyle;rounded=0;orthogonalLoop=1;jettySize=auto;html=1;" edge="1" parent="1" source="N_kNWa-cUgh5Z6yBXbxZ-1" target="N_kNWa-cUgh5Z6yBXbxZ-2">
          <mxGeometry relative="1" as="geometry" />
        </mxCell>
        <mxCell id="N_kNWa-cUgh5Z6yBXbxZ-1" value="FUNCTION unregistered_interface(data_clients, data_carlist, space_cars,space_clients)" style="shape=process;whiteSpace=wrap;html=1;backgroundOutline=1;" vertex="1" parent="1">
          <mxGeometry x="340" y="80" width="290" height="100" as="geometry" />
        </mxCell>
        <mxCell id="N_kNWa-cUgh5Z6yBXbxZ-5" value="" style="edgeStyle=orthogonalEdgeStyle;rounded=0;orthogonalLoop=1;jettySize=auto;html=1;" edge="1" parent="1" source="N_kNWa-cUgh5Z6yBXbxZ-2" target="N_kNWa-cUgh5Z6yBXbxZ-4">
          <mxGeometry relative="1" as="geometry" />
        </mxCell>
        <mxCell id="N_kNWa-cUgh5Z6yBXbxZ-2" value="title = &quot;Guest, Welcome to Super Car Rental System&quot;" style="rounded=1;whiteSpace=wrap;html=1;" vertex="1" parent="1">
          <mxGeometry x="370" y="230" width="230" height="40" as="geometry" />
        </mxCell>
        <mxCell id="N_kNWa-cUgh5Z6yBXbxZ-7" value="" style="edgeStyle=orthogonalEdgeStyle;rounded=0;orthogonalLoop=1;jettySize=auto;html=1;" edge="1" parent="1" source="N_kNWa-cUgh5Z6yBXbxZ-4" target="N_kNWa-cUgh5Z6yBXbxZ-6">
          <mxGeometry relative="1" as="geometry" />
        </mxCell>
        <mxCell id="N_kNWa-cUgh5Z6yBXbxZ-4" value="DECLARE menu = [&quot;Register&quot;, &quot;View Available Cars&quot;, &quot;Return&quot;]" style="rounded=1;whiteSpace=wrap;html=1;" vertex="1" parent="1">
          <mxGeometry x="370" y="320" width="230" height="40" as="geometry" />
        </mxCell>
        <mxCell id="N_kNWa-cUgh5Z6yBXbxZ-9" value="" style="edgeStyle=orthogonalEdgeStyle;rounded=0;orthogonalLoop=1;jettySize=auto;html=1;" edge="1" parent="1" source="N_kNWa-cUgh5Z6yBXbxZ-6" target="N_kNWa-cUgh5Z6yBXbxZ-8">
          <mxGeometry relative="1" as="geometry" />
        </mxCell>
        <mxCell id="N_kNWa-cUgh5Z6yBXbxZ-6" value="print_title(title)" style="shape=process;whiteSpace=wrap;html=1;backgroundOutline=1;" vertex="1" parent="1">
          <mxGeometry x="365" y="400" width="240" height="40" as="geometry" />
        </mxCell>
        <mxCell id="N_kNWa-cUgh5Z6yBXbxZ-11" value="" style="edgeStyle=orthogonalEdgeStyle;rounded=0;orthogonalLoop=1;jettySize=auto;html=1;" edge="1" parent="1" source="N_kNWa-cUgh5Z6yBXbxZ-8" target="N_kNWa-cUgh5Z6yBXbxZ-10">
          <mxGeometry relative="1" as="geometry" />
        </mxCell>
        <mxCell id="N_kNWa-cUgh5Z6yBXbxZ-8" value="general_menu(menu)" style="shape=process;whiteSpace=wrap;html=1;backgroundOutline=1;" vertex="1" parent="1">
          <mxGeometry x="365" y="480" width="240" height="40" as="geometry" />
        </mxCell>
        <mxCell id="N_kNWa-cUgh5Z6yBXbxZ-13" value="" style="edgeStyle=orthogonalEdgeStyle;rounded=0;orthogonalLoop=1;jettySize=auto;html=1;" edge="1" parent="1" source="N_kNWa-cUgh5Z6yBXbxZ-10" target="N_kNWa-cUgh5Z6yBXbxZ-12">
          <mxGeometry relative="1" as="geometry" />
        </mxCell>
        <mxCell id="N_kNWa-cUgh5Z6yBXbxZ-10" value="PRINT(&quot;Please Select: &quot;)" style="rounded=1;whiteSpace=wrap;html=1;" vertex="1" parent="1">
          <mxGeometry x="370" y="560" width="230" height="40" as="geometry" />
        </mxCell>
        <mxCell id="N_kNWa-cUgh5Z6yBXbxZ-15" value="" style="edgeStyle=orthogonalEdgeStyle;rounded=0;orthogonalLoop=1;jettySize=auto;html=1;" edge="1" parent="1" source="N_kNWa-cUgh5Z6yBXbxZ-12" target="N_kNWa-cUgh5Z6yBXbxZ-14">
          <mxGeometry relative="1" as="geometry" />
        </mxCell>
        <mxCell id="N_kNWa-cUgh5Z6yBXbxZ-12" value="READ choice" style="shape=parallelogram;perimeter=parallelogramPerimeter;whiteSpace=wrap;html=1;fixedSize=1;" vertex="1" parent="1">
          <mxGeometry x="371" y="640" width="229" height="50" as="geometry" />
        </mxCell>
        <mxCell id="N_kNWa-cUgh5Z6yBXbxZ-16" style="edgeStyle=orthogonalEdgeStyle;rounded=0;orthogonalLoop=1;jettySize=auto;html=1;" edge="1" parent="1" source="N_kNWa-cUgh5Z6yBXbxZ-14">
          <mxGeometry relative="1" as="geometry">
            <mxPoint x="486" y="380" as="targetPoint" />
            <Array as="points">
              <mxPoint x="290" y="805" />
              <mxPoint x="290" y="380" />
              <mxPoint x="486" y="380" />
            </Array>
          </mxGeometry>
        </mxCell>
        <mxCell id="N_kNWa-cUgh5Z6yBXbxZ-19" value="" style="edgeStyle=orthogonalEdgeStyle;rounded=0;orthogonalLoop=1;jettySize=auto;html=1;" edge="1" parent="1" source="N_kNWa-cUgh5Z6yBXbxZ-14" target="N_kNWa-cUgh5Z6yBXbxZ-18">
          <mxGeometry relative="1" as="geometry" />
        </mxCell>
        <mxCell id="N_kNWa-cUgh5Z6yBXbxZ-14" value="choice == &#39;1&#39; OR choice == &#39;2&#39; OR choice == &#39;3&#39;" style="rhombus;whiteSpace=wrap;html=1;" vertex="1" parent="1">
          <mxGeometry x="341" y="750" width="289" height="110" as="geometry" />
        </mxCell>
        <mxCell id="N_kNWa-cUgh5Z6yBXbxZ-17" value="False" style="text;html=1;align=center;verticalAlign=middle;resizable=0;points=[];autosize=1;strokeColor=none;" vertex="1" parent="1">
          <mxGeometry x="301" y="780" width="40" height="20" as="geometry" />
        </mxCell>
        <mxCell id="N_kNWa-cUgh5Z6yBXbxZ-23" value="" style="edgeStyle=orthogonalEdgeStyle;rounded=0;orthogonalLoop=1;jettySize=auto;html=1;" edge="1" parent="1" source="N_kNWa-cUgh5Z6yBXbxZ-18" target="N_kNWa-cUgh5Z6yBXbxZ-22">
          <mxGeometry relative="1" as="geometry" />
        </mxCell>
        <mxCell id="N_kNWa-cUgh5Z6yBXbxZ-18" value="BREAK" style="rounded=1;whiteSpace=wrap;html=1;" vertex="1" parent="1">
          <mxGeometry x="413" y="900" width="145" height="40" as="geometry" />
        </mxCell>
        <mxCell id="N_kNWa-cUgh5Z6yBXbxZ-20" value="True" style="text;html=1;align=center;verticalAlign=middle;resizable=0;points=[];autosize=1;strokeColor=none;" vertex="1" parent="1">
          <mxGeometry x="490" y="860" width="40" height="20" as="geometry" />
        </mxCell>
        <mxCell id="N_kNWa-cUgh5Z6yBXbxZ-25" value="" style="edgeStyle=orthogonalEdgeStyle;rounded=0;orthogonalLoop=1;jettySize=auto;html=1;" edge="1" parent="1" source="N_kNWa-cUgh5Z6yBXbxZ-22" target="N_kNWa-cUgh5Z6yBXbxZ-24">
          <mxGeometry relative="1" as="geometry" />
        </mxCell>
        <mxCell id="N_kNWa-cUgh5Z6yBXbxZ-29" style="edgeStyle=orthogonalEdgeStyle;rounded=0;orthogonalLoop=1;jettySize=auto;html=1;entryX=0;entryY=0.5;entryDx=0;entryDy=0;" edge="1" parent="1" source="N_kNWa-cUgh5Z6yBXbxZ-22" target="N_kNWa-cUgh5Z6yBXbxZ-26">
          <mxGeometry relative="1" as="geometry">
            <Array as="points">
              <mxPoint x="660" y="1040" />
              <mxPoint x="660" y="250" />
            </Array>
          </mxGeometry>
        </mxCell>
        <mxCell id="N_kNWa-cUgh5Z6yBXbxZ-22" value="choice == &#39;1&#39;" style="rhombus;whiteSpace=wrap;html=1;" vertex="1" parent="1">
          <mxGeometry x="430" y="990" width="110" height="100" as="geometry" />
        </mxCell>
        <mxCell id="N_kNWa-cUgh5Z6yBXbxZ-24" value="register_interface(data_clients, space_clients)" style="shape=process;whiteSpace=wrap;html=1;backgroundOutline=1;" vertex="1" parent="1">
          <mxGeometry x="365" y="1130" width="240" height="50" as="geometry" />
        </mxCell>
        <mxCell id="N_kNWa-cUgh5Z6yBXbxZ-31" value="" style="edgeStyle=orthogonalEdgeStyle;rounded=0;orthogonalLoop=1;jettySize=auto;html=1;" edge="1" parent="1" source="N_kNWa-cUgh5Z6yBXbxZ-26" target="N_kNWa-cUgh5Z6yBXbxZ-30">
          <mxGeometry relative="1" as="geometry" />
        </mxCell>
        <mxCell id="N_kNWa-cUgh5Z6yBXbxZ-58" style="edgeStyle=orthogonalEdgeStyle;rounded=0;orthogonalLoop=1;jettySize=auto;html=1;entryX=0;entryY=0.5;entryDx=0;entryDy=0;" edge="1" parent="1" source="N_kNWa-cUgh5Z6yBXbxZ-26" target="N_kNWa-cUgh5Z6yBXbxZ-57">
          <mxGeometry relative="1" as="geometry" />
        </mxCell>
        <mxCell id="N_kNWa-cUgh5Z6yBXbxZ-26" value="choice == &#39;2&#39;" style="rhombus;whiteSpace=wrap;html=1;" vertex="1" parent="1">
          <mxGeometry x="810" y="200" width="110" height="100" as="geometry" />
        </mxCell>
        <mxCell id="N_kNWa-cUgh5Z6yBXbxZ-27" value="True" style="text;html=1;align=center;verticalAlign=middle;resizable=0;points=[];autosize=1;strokeColor=none;" vertex="1" parent="1">
          <mxGeometry x="490" y="1090" width="40" height="20" as="geometry" />
        </mxCell>
        <mxCell id="N_kNWa-cUgh5Z6yBXbxZ-33" value="" style="edgeStyle=orthogonalEdgeStyle;rounded=0;orthogonalLoop=1;jettySize=auto;html=1;" edge="1" parent="1" source="N_kNWa-cUgh5Z6yBXbxZ-30" target="N_kNWa-cUgh5Z6yBXbxZ-32">
          <mxGeometry relative="1" as="geometry" />
        </mxCell>
        <mxCell id="N_kNWa-cUgh5Z6yBXbxZ-30" value="print_table(data_carlist, 6, space_cars)" style="shape=process;whiteSpace=wrap;html=1;backgroundOutline=1;" vertex="1" parent="1">
          <mxGeometry x="745" y="350" width="240" height="50" as="geometry" />
        </mxCell>
        <mxCell id="N_kNWa-cUgh5Z6yBXbxZ-35" value="" style="edgeStyle=orthogonalEdgeStyle;rounded=0;orthogonalLoop=1;jettySize=auto;html=1;" edge="1" parent="1" source="N_kNWa-cUgh5Z6yBXbxZ-32" target="N_kNWa-cUgh5Z6yBXbxZ-34">
          <mxGeometry relative="1" as="geometry" />
        </mxCell>
        <mxCell id="N_kNWa-cUgh5Z6yBXbxZ-32" value="PRINT(&quot;&quot;)" style="rounded=1;whiteSpace=wrap;html=1;" vertex="1" parent="1">
          <mxGeometry x="750" y="440" width="230" height="40" as="geometry" />
        </mxCell>
        <mxCell id="N_kNWa-cUgh5Z6yBXbxZ-42" style="edgeStyle=orthogonalEdgeStyle;rounded=0;orthogonalLoop=1;jettySize=auto;html=1;entryX=0.5;entryY=0;entryDx=0;entryDy=0;" edge="1" parent="1" source="N_kNWa-cUgh5Z6yBXbxZ-34" target="N_kNWa-cUgh5Z6yBXbxZ-37">
          <mxGeometry relative="1" as="geometry" />
        </mxCell>
        <mxCell id="N_kNWa-cUgh5Z6yBXbxZ-34" value="DECLARE menu = [&quot;Return&quot;]" style="rounded=1;whiteSpace=wrap;html=1;" vertex="1" parent="1">
          <mxGeometry x="750" y="520" width="230" height="40" as="geometry" />
        </mxCell>
        <mxCell id="N_kNWa-cUgh5Z6yBXbxZ-36" value="" style="edgeStyle=orthogonalEdgeStyle;rounded=0;orthogonalLoop=1;jettySize=auto;html=1;" edge="1" parent="1" source="N_kNWa-cUgh5Z6yBXbxZ-37" target="N_kNWa-cUgh5Z6yBXbxZ-39">
          <mxGeometry relative="1" as="geometry" />
        </mxCell>
        <mxCell id="N_kNWa-cUgh5Z6yBXbxZ-37" value="general_menu(menu)" style="shape=process;whiteSpace=wrap;html=1;backgroundOutline=1;" vertex="1" parent="1">
          <mxGeometry x="745" y="610" width="240" height="40" as="geometry" />
        </mxCell>
        <mxCell id="N_kNWa-cUgh5Z6yBXbxZ-38" value="" style="edgeStyle=orthogonalEdgeStyle;rounded=0;orthogonalLoop=1;jettySize=auto;html=1;" edge="1" parent="1" source="N_kNWa-cUgh5Z6yBXbxZ-39" target="N_kNWa-cUgh5Z6yBXbxZ-40">
          <mxGeometry relative="1" as="geometry" />
        </mxCell>
        <mxCell id="N_kNWa-cUgh5Z6yBXbxZ-39" value="PRINT(&quot;Please Select: &quot;)" style="rounded=1;whiteSpace=wrap;html=1;" vertex="1" parent="1">
          <mxGeometry x="750" y="690" width="230" height="40" as="geometry" />
        </mxCell>
        <mxCell id="N_kNWa-cUgh5Z6yBXbxZ-44" value="" style="edgeStyle=orthogonalEdgeStyle;rounded=0;orthogonalLoop=1;jettySize=auto;html=1;" edge="1" parent="1" source="N_kNWa-cUgh5Z6yBXbxZ-40" target="N_kNWa-cUgh5Z6yBXbxZ-43">
          <mxGeometry relative="1" as="geometry" />
        </mxCell>
        <mxCell id="N_kNWa-cUgh5Z6yBXbxZ-40" value="READ choice" style="shape=parallelogram;perimeter=parallelogramPerimeter;whiteSpace=wrap;html=1;fixedSize=1;" vertex="1" parent="1">
          <mxGeometry x="751" y="770" width="229" height="50" as="geometry" />
        </mxCell>
        <mxCell id="N_kNWa-cUgh5Z6yBXbxZ-46" value="" style="edgeStyle=orthogonalEdgeStyle;rounded=0;orthogonalLoop=1;jettySize=auto;html=1;" edge="1" parent="1" source="N_kNWa-cUgh5Z6yBXbxZ-43" target="N_kNWa-cUgh5Z6yBXbxZ-45">
          <mxGeometry relative="1" as="geometry" />
        </mxCell>
        <mxCell id="N_kNWa-cUgh5Z6yBXbxZ-51" style="edgeStyle=orthogonalEdgeStyle;rounded=0;orthogonalLoop=1;jettySize=auto;html=1;entryX=0;entryY=0.5;entryDx=0;entryDy=0;" edge="1" parent="1" source="N_kNWa-cUgh5Z6yBXbxZ-43" target="N_kNWa-cUgh5Z6yBXbxZ-34">
          <mxGeometry relative="1" as="geometry">
            <Array as="points">
              <mxPoint x="710" y="920" />
              <mxPoint x="710" y="540" />
            </Array>
          </mxGeometry>
        </mxCell>
        <mxCell id="N_kNWa-cUgh5Z6yBXbxZ-43" value="choice == &#39;1&#39;" style="rhombus;whiteSpace=wrap;html=1;" vertex="1" parent="1">
          <mxGeometry x="810" y="870" width="110" height="100" as="geometry" />
        </mxCell>
        <mxCell id="N_kNWa-cUgh5Z6yBXbxZ-54" value="" style="edgeStyle=orthogonalEdgeStyle;rounded=0;orthogonalLoop=1;jettySize=auto;html=1;" edge="1" parent="1" source="N_kNWa-cUgh5Z6yBXbxZ-45" target="N_kNWa-cUgh5Z6yBXbxZ-53">
          <mxGeometry relative="1" as="geometry" />
        </mxCell>
        <mxCell id="N_kNWa-cUgh5Z6yBXbxZ-45" value="BREAK" style="rounded=1;whiteSpace=wrap;html=1;" vertex="1" parent="1">
          <mxGeometry x="793" y="1010" width="145" height="40" as="geometry" />
        </mxCell>
        <mxCell id="N_kNWa-cUgh5Z6yBXbxZ-48" value="False" style="text;html=1;align=center;verticalAlign=middle;resizable=0;points=[];autosize=1;strokeColor=none;" vertex="1" parent="1">
          <mxGeometry x="540" y="1020" width="40" height="20" as="geometry" />
        </mxCell>
        <mxCell id="N_kNWa-cUgh5Z6yBXbxZ-49" value="True" style="text;html=1;align=center;verticalAlign=middle;resizable=0;points=[];autosize=1;strokeColor=none;" vertex="1" parent="1">
          <mxGeometry x="870" y="970" width="40" height="20" as="geometry" />
        </mxCell>
        <mxCell id="N_kNWa-cUgh5Z6yBXbxZ-52" value="False" style="text;html=1;align=center;verticalAlign=middle;resizable=0;points=[];autosize=1;strokeColor=none;" vertex="1" parent="1">
          <mxGeometry x="770" y="900" width="40" height="20" as="geometry" />
        </mxCell>
        <mxCell id="N_kNWa-cUgh5Z6yBXbxZ-56" value="" style="edgeStyle=orthogonalEdgeStyle;rounded=0;orthogonalLoop=1;jettySize=auto;html=1;" edge="1" parent="1" source="N_kNWa-cUgh5Z6yBXbxZ-53" target="N_kNWa-cUgh5Z6yBXbxZ-55">
          <mxGeometry relative="1" as="geometry" />
        </mxCell>
        <mxCell id="N_kNWa-cUgh5Z6yBXbxZ-53" value="choice == &#39;1&#39;" style="rhombus;whiteSpace=wrap;html=1;" vertex="1" parent="1">
          <mxGeometry x="810" y="1090" width="110" height="100" as="geometry" />
        </mxCell>
        <mxCell id="N_kNWa-cUgh5Z6yBXbxZ-55" value="RETURN" style="ellipse;whiteSpace=wrap;html=1;" vertex="1" parent="1">
          <mxGeometry x="820" y="1230" width="90" height="80" as="geometry" />
        </mxCell>
        <mxCell id="N_kNWa-cUgh5Z6yBXbxZ-63" value="" style="edgeStyle=orthogonalEdgeStyle;rounded=0;orthogonalLoop=1;jettySize=auto;html=1;" edge="1" parent="1" source="N_kNWa-cUgh5Z6yBXbxZ-57" target="N_kNWa-cUgh5Z6yBXbxZ-62">
          <mxGeometry relative="1" as="geometry" />
        </mxCell>
        <mxCell id="N_kNWa-cUgh5Z6yBXbxZ-57" value="choice == &#39;3&#39;" style="rhombus;whiteSpace=wrap;html=1;" vertex="1" parent="1">
          <mxGeometry x="1090" y="200" width="110" height="100" as="geometry" />
        </mxCell>
        <mxCell id="N_kNWa-cUgh5Z6yBXbxZ-60" value="True" style="text;html=1;align=center;verticalAlign=middle;resizable=0;points=[];autosize=1;strokeColor=none;" vertex="1" parent="1">
          <mxGeometry x="870" y="300" width="40" height="20" as="geometry" />
        </mxCell>
        <mxCell id="N_kNWa-cUgh5Z6yBXbxZ-61" value="False" style="text;html=1;align=center;verticalAlign=middle;resizable=0;points=[];autosize=1;strokeColor=none;" vertex="1" parent="1">
          <mxGeometry x="920" y="230" width="40" height="20" as="geometry" />
        </mxCell>
        <mxCell id="N_kNWa-cUgh5Z6yBXbxZ-62" value="RETURN" style="ellipse;whiteSpace=wrap;html=1;" vertex="1" parent="1">
          <mxGeometry x="1100" y="340" width="90" height="80" as="geometry" />
        </mxCell>
        <mxCell id="N_kNWa-cUgh5Z6yBXbxZ-64" value="True" style="text;html=1;align=center;verticalAlign=middle;resizable=0;points=[];autosize=1;strokeColor=none;" vertex="1" parent="1">
          <mxGeometry x="1150" y="300" width="40" height="20" as="geometry" />
        </mxCell>
        <mxCell id="N_kNWa-cUgh5Z6yBXbxZ-65" value="True" style="text;html=1;align=center;verticalAlign=middle;resizable=0;points=[];autosize=1;strokeColor=none;" vertex="1" parent="1">
          <mxGeometry x="870" y="1190" width="40" height="20" as="geometry" />
        </mxCell>
      </root>
    </mxGraphModel>
  </diagram>
</mxfile>
